<svg width="30" height="30" viewBox="0 0 30 30" fill="none" xmlns="http://www.w3.org/2000/svg">
<path fill-rule="evenodd" clip-rule="evenodd" d="M22.5002 15C22.5002 15.2486 22.4014 15.4871 22.2256 15.6629C22.0498 15.8387 21.8114 15.9375 21.5627 15.9375H10.7008L14.7265 19.9612C14.8136 20.0484 14.8828 20.1519 14.9299 20.2657C14.9771 20.3796 15.0014 20.5017 15.0014 20.625C15.0014 20.7482 14.9771 20.8703 14.9299 20.9842C14.8828 21.0981 14.8136 21.2015 14.7265 21.2887C14.6393 21.3759 14.5358 21.445 14.4219 21.4922C14.308 21.5394 14.186 21.5636 14.0627 21.5636C13.9394 21.5636 13.8174 21.5394 13.7035 21.4922C13.5896 21.445 13.4861 21.3759 13.399 21.2887L7.77396 15.6637C7.68665 15.5766 7.61739 15.4732 7.57012 15.3593C7.52286 15.2454 7.49854 15.1233 7.49854 15C7.49854 14.8767 7.52286 14.7545 7.57012 14.6407C7.61739 14.5268 7.68665 14.4233 7.77396 14.3362L13.399 8.71121C13.575 8.53518 13.8138 8.43628 14.0627 8.43628C14.3117 8.43628 14.5504 8.53518 14.7265 8.71121C14.9025 8.88725 15.0014 9.12601 15.0014 9.37496C15.0014 9.62392 14.9025 9.86268 14.7265 10.0387L10.7008 14.0625H21.5627C21.8114 14.0625 22.0498 14.1612 22.2256 14.3371C22.4014 14.5129 22.5002 14.7513 22.5002 15Z" fill="white"/>
</svg>
