<svg width="30" height="30" viewBox="0 0 30 30" fill="none" xmlns="http://www.w3.org/2000/svg">
<path fill-rule="evenodd" clip-rule="evenodd" d="M7.49979 15C7.49979 15.2486 7.59856 15.4871 7.77438 15.6629C7.95019 15.8387 8.18865 15.9375 8.43729 15.9375H19.2992L15.2735 19.9612C15.1864 20.0484 15.1172 20.1519 15.0701 20.2657C15.0229 20.3796 14.9986 20.5017 14.9986 20.625C14.9986 20.7482 15.0229 20.8703 15.0701 20.9842C15.1172 21.0981 15.1864 21.2015 15.2735 21.2887C15.3607 21.3759 15.4642 21.445 15.5781 21.4922C15.692 21.5394 15.814 21.5636 15.9373 21.5636C16.0606 21.5636 16.1826 21.5394 16.2965 21.4922C16.4104 21.445 16.5139 21.3759 16.601 21.2887L22.226 15.6637C22.3133 15.5766 22.3826 15.4732 22.4299 15.3593C22.4771 15.2454 22.5015 15.1233 22.5015 15C22.5015 14.8767 22.4771 14.7545 22.4299 14.6407C22.3826 14.5268 22.3133 14.4233 22.226 14.3362L16.601 8.71121C16.425 8.53518 16.1862 8.43628 15.9373 8.43628C15.6883 8.43628 15.4496 8.53518 15.2735 8.71121C15.0975 8.88725 14.9986 9.12601 14.9986 9.37496C14.9986 9.62392 15.0975 9.86268 15.2735 10.0387L19.2992 14.0625H8.43729C8.18865 14.0625 7.95019 14.1612 7.77438 14.3371C7.59856 14.5129 7.49979 14.7513 7.49979 15Z" fill="white"/>
</svg>
